<?xml version="1.0" encoding="UTF-8"?>
<svg id="Layer_1" data-name="Layer 1" xmlns="http://www.w3.org/2000/svg" viewBox="0 0 1795.43 371.79">
  <defs>
    <style>
      .cls-1 {
        fill: #fefefe;
      }
    </style>
  </defs>
  <path class="cls-1" d="M0,185.89C0,71.78,80.55,0,160.59,0c39.76,0,63.51,16.01,81.59,32.02,13.94,11.88,18.07,14.46,23.24,14.46,8.26,0,13.43-7.23,14.46-46.47h5.16l2.07,149.75h-5.16c-3.1-53.19-33.56-143.55-120.31-143.55S44.41,93.98,44.41,185.89s20.14,179.18,117.22,179.18c84.69,0,117.22-74.36,121.35-137.36h5.16c-2.58,60.93-35.11,144.07-130.64,144.07C69.71,371.79,0,301.05,0,185.89Z"/>
  <path class="cls-1" d="M676.45,276.26v42.86c0,20.65-1.55,29.43-6.2,36.66-4.13,5.68-12.91,16.01-33.56,16.01-16.01,0-26.85-5.68-33.05-13.94-6.2-7.23-7.23-20.14-7.23-37.18v-44.92c0-59.9-40.79-79.52-85.72-79.52h-59.9v113.09c0,42.34,0,51.12,56.28,52.15v5.16h-139.42v-5.16c44.41-1.03,44.41-9.81,44.41-52.15V62.48c0-42.34,0-51.12-44.41-52.15V5.16h149.23c72.81,0,133.22,21.69,133.22,95.01,0,62.48-42.86,88.3-103.79,94.5,48.54,11.36,90.37,43.38,90.37,84.69v40.28c0,11.36,1.03,19.62,3.1,25.3,2.07,5.16,6.2,9.81,13.94,9.81,8.78,0,12.39-6.2,13.94-9.81,2.58-4.65,3.61-11.88,3.61-25.82v-42.86h5.16Zm-159.56-86.23c69.19,0,89.33-25.82,89.33-89.85s-20.14-88.82-89.33-88.82h-24.27c-41.83,0-41.83,8.26-41.83,50.09V190.03h66.1Z"/>
  <path class="cls-1" d="M750.29,185.89C750.29,71.26,833.42,0,911.91,0s160.59,71.26,160.59,185.89-82.62,185.89-160.59,185.89-161.62-71.26-161.62-185.89Zm277.81,0c0-93.46-29.43-179.7-116.18-179.7s-117.22,86.23-117.22,179.7,29.95,179.7,117.22,179.7,116.18-86.23,116.18-179.7Z"/>
  <path class="cls-1" d="M1154.09,185.89c0-114.12,80.55-185.89,160.59-185.89,39.76,0,63.51,16.01,81.59,32.02,13.94,11.88,18.07,14.46,23.24,14.46,8.26,0,13.43-7.23,14.46-46.47h5.16l2.07,149.75h-5.16c-3.1-53.19-33.56-143.55-120.31-143.55s-117.22,87.78-117.22,179.7,20.14,179.18,117.22,179.18c84.68,0,117.22-74.36,121.35-137.36h5.16c-2.58,60.93-35.11,144.07-130.64,144.07-87.78,0-157.49-70.74-157.49-185.89Z"/>
  <path class="cls-1" d="M1583.71,343.39c-14.46-10.33-23.75-19.11-30.98-19.11s-11.36,7.75-12.39,46.99h-5.16l-2.07-149.23h5.16c4.65,56.29,36.15,143.04,131.16,143.04,24.79,0,58.35-4.65,80.04-27.88,12.91-14.46,16.01-32.53,16.01-50.6,0-50.6-44.41-71.78-107.41-92.43-50.6-17.56-118.77-34.08-118.77-99.14,0-25.3,9.81-46.47,26.85-62.48,22.2-22.2,54.74-32.01,88.82-32.01,39.76,0,66.1,17.04,80.04,27.88,16.01,12.91,22.2,19.11,28.92,19.11,7.23,0,11.88-7.75,12.39-46.99h5.16l2.07,143.55h-5.16c-4.65-53.7-36.15-137.36-123.41-137.36-26.33,0-49.05,6.2-63.51,18.59-13.43,11.36-21.17,27.37-21.17,46.99,0,46.47,40.28,60.42,100.18,81.07,68.68,23.24,124.96,44.41,124.96,110.5,0,29.95-9.81,55.77-31.5,74.87-21.69,19.62-50.09,32.53-94.5,32.53-41.83,0-68.68-16.01-85.72-27.88Z"/>
</svg>